<?xml version="1.0" encoding="utf-8"?>
<!-- Generator: Adobe Illustrator 26.3.1, SVG Export Plug-In . SVG Version: 6.00 Build 0)  -->
<svg version="1.1" id="Vrstva_1" xmlns="http://www.w3.org/2000/svg" xmlns:xlink="http://www.w3.org/1999/xlink" x="0px" y="0px"
	 viewBox="0 0 100 100" style="enable-background:new 0 0 100 100;" xml:space="preserve">
<style type="text/css">
	.st0{fill:#457292;}
</style>
<path class="st0" d="M31,17c-7.7,0-14,6.3-14,14v38c0,7.7,6.3,14,14,14h38c7.7,0,14-6.3,14-14V31c0-7.7-6.3-14-14-14H31z M31,19h38
	c6.6,0,12,5.4,12,12v38c0,6.6-5.4,12-12,12H31c-6.6,0-12-5.4-12-12V31C19,24.4,24.4,19,31,19z M40,26c-7.7,0-14,6.3-14,14v20
	c0,7.7,6.3,14,14,14h20c7.7,0,14-6.3,14-14V40c0-7.7-6.3-14-14-14H40z M40,27h20c7.2,0,13,5.8,13,13v20c0,7.2-5.8,13-13,13H40
	c-7.2,0-13-5.8-13-13V40C27,32.8,32.8,27,40,27z M40,30c-5.5,0-10,4.5-10,10v20c0,5.5,4.5,10,10,10h20c5.5,0,10-4.5,10-10V40
	c0-5.5-4.5-10-10-10H40z M40,31h20c5,0,9,4,9,9v20c0,5-4,9-9,9H40c-5,0-9-4-9-9V40C31,35,35,31,40,31z M62.5,34
	c-1.1,0-2,0.4-2.6,1.1S59,36.6,59,37.5s0.3,1.7,0.9,2.4s1.5,1.1,2.6,1.1s2-0.4,2.6-1.1s0.9-1.5,0.9-2.4s-0.3-1.7-0.9-2.4
	S63.6,34,62.5,34z M62.5,35c0.9,0,1.5,0.3,1.9,0.8s0.6,1.1,0.6,1.7s-0.2,1.3-0.6,1.7s-1,0.8-1.9,0.8s-1.5-0.3-1.9-0.8
	S60,38.1,60,37.5s0.2-1.3,0.6-1.7S61.6,35,62.5,35z M50,38c-6.6,0-12,5.4-12,12s5.4,12,12,12s12-5.4,12-12S56.6,38,50,38z M50,39
	c6.1,0,11,4.9,11,11s-4.9,11-11,11s-11-4.9-11-11S43.9,39,50,39z M50,42c-4.4,0-8,3.6-8,8s3.6,8,8,8s8-3.6,8-8S54.4,42,50,42z
	 M50,43c3.9,0,7,3.1,7,7s-3.1,7-7,7s-7-3.1-7-7S46.1,43,50,43z"/>
</svg>
