<?xml version="1.0" encoding="utf-8"?>
<!-- Generator: Adobe Illustrator 26.2.1, SVG Export Plug-In . SVG Version: 6.00 Build 0)  -->
<svg version="1.1" id="Vrstva_1" xmlns="http://www.w3.org/2000/svg" xmlns:xlink="http://www.w3.org/1999/xlink" x="0px" y="0px"
	 viewBox="0 0 100 100" style="enable-background:new 0 0 100 100;" xml:space="preserve">
<style type="text/css">
	.st0{fill:#79ABD6;}
</style>
<path class="st0" d="M31,18c-7.2,0-13,5.8-13,13v39c0,7.2,5.8,13,13,13h39c7.2,0,13-5.8,13-13V31c0-7.2-5.8-13-13-13H31z M31,20h39
	c6.1,0,11,4.9,11,11v39c0,6.1-4.9,11-11,11H31c-6.1,0-11-4.9-11-11V31C20,24.9,24.9,20,31,20z M33.8,23c-6,0-10.8,4.9-10.8,10.8
	v33.3c0,6,4.9,10.8,10.8,10.8h33.3c6,0,10.8-4.9,10.8-10.8V48.5c0-0.3-0.2-0.5-0.5-0.5S77,48.2,77,48.5v18.7c0,5.4-4.4,9.8-9.8,9.8
	H33.8c-5.4,0-9.8-4.4-9.8-9.8V33.8c0-5.4,4.4-9.8,9.8-9.8h33.7c0.3,0,0.5-0.2,0.5-0.5c0-0.3-0.2-0.5-0.5-0.5H33.8z M33.6,36
	c-1,0-1.9,0.3-2.7,0.9c-0.1,0-0.2,0.1-0.3,0.2c-1,0.8-1.6,2.1-1.6,3.5v20.8c0,1.4,0.6,2.6,1.6,3.5c0.1,0.1,0.2,0.2,0.3,0.2
	c0.8,0.5,1.7,0.9,2.7,0.9h33.8c1.3,0,2.4-0.5,3.3-1.4c0.1-0.1,0.2-0.2,0.3-0.3c0.7-0.8,1.1-1.8,1.1-2.9V40.6c0-1.1-0.4-2.1-1.1-2.9
	c0-0.1-0.1-0.2-0.2-0.3c-0.8-0.9-2-1.4-3.3-1.4H33.6z M77.5,36.6c-0.3,0-0.5,0.2-0.5,0.5v2c0,0.3,0.2,0.5,0.5,0.5s0.5-0.2,0.5-0.5
	v-2C78,36.8,77.8,36.6,77.5,36.6z M33.6,37h33.8c0.9,0,1.7,0.3,2.3,0.9L58.4,50.8c0,0-0.1,0.1-0.1,0.1l-2.4,2.7
	c-2.8,3.2-7.8,3.2-10.6-0.1l-2.1-2.6c0,0-0.1-0.1-0.1-0.1c0,0,0,0,0,0L31.8,37.5C32.3,37.2,32.9,37,33.6,37z M31,38.1l11,13.1
	L31,63.9c-0.6-0.6-1-1.5-1-2.5V40.6C30,39.6,30.4,38.7,31,38.1z M70.4,38.6c0.4,0.6,0.6,1.2,0.6,2v20.8c0,0.7-0.2,1.4-0.6,2
	l-11-12.2L70.4,38.6z M77.5,40.6c-0.3,0-0.5,0.2-0.5,0.5v4c0,0.3,0.2,0.5,0.5,0.5s0.5-0.2,0.5-0.5v-4C78,40.8,77.8,40.6,77.5,40.6z
	 M58.7,51.9l11,12.2c-0.6,0.5-1.4,0.9-2.3,0.9H33.6c-0.6,0-1.2-0.2-1.8-0.5L42.7,52l1.8,2.2c3.1,3.7,8.9,3.8,12.1,0.1L58.7,51.9z"/>
</svg>
