<?xml version="1.0" encoding="utf-8"?>
<!-- Generator: Adobe Illustrator 26.2.1, SVG Export Plug-In . SVG Version: 6.00 Build 0)  -->
<svg version="1.1" id="Vrstva_1" xmlns="http://www.w3.org/2000/svg" xmlns:xlink="http://www.w3.org/1999/xlink" x="0px" y="0px"
	 viewBox="0 0 100 100" style="enable-background:new 0 0 100 100;" xml:space="preserve">
<style type="text/css">
	.st0{fill:#79ABD6;}
</style>
<path class="st0" d="M31,18c-7.2,0-13,5.8-13,13v39c0,7.2,5.8,13,13,13h39c7.2,0,13-5.8,13-13V31c0-7.2-5.8-13-13-13H31z M31,20h39
	c6.1,0,11,4.9,11,11v39c0,6.1-4.9,11-11,11H31c-6.1,0-11-4.9-11-11V31C20,24.9,24.9,20,31,20z M33.8,23c-6,0-10.8,4.9-10.8,10.8
	v33.3c0,6,4.9,10.8,10.8,10.8h33.3c6,0,10.8-4.9,10.8-10.8V48.5c0-0.3-0.2-0.5-0.5-0.5S77,48.2,77,48.5v18.7c0,5.4-4.4,9.8-9.8,9.8
	H33.8c-5.4,0-9.8-4.4-9.8-9.8V33.8c0-5.4,4.4-9.8,9.8-9.8h33.7c0.3,0,0.5-0.2,0.5-0.5c0-0.3-0.2-0.5-0.5-0.5H33.8z M36.5,30
	c-0.3,0-0.6,0.1-0.8,0.2c-1.3,0.5-2.7,1.1-3.9,2.3S30,35.6,30,38.3c0,3.1,1.6,6.5,4,10s5.5,6.9,8.7,10.1l0,0l0,0
	c3.2,3.2,6.7,6.3,10.2,8.6s7,4,10,4c2.6,0,4.4-0.7,5.6-1.8s1.9-2.5,2.4-3.8c0.4-1.1,0-2.3-0.9-2.9c-1.5-1-4.6-2.9-6.7-4.1
	c-1.4-0.8-3.1-0.8-4.4,0l-0.6,0.3c-1.2,0.7-2.7,0.6-3.8-0.3c-1.8-1.4-4.3-3.6-6.2-5.5c-1.9-1.9-3.9-4.3-5.2-6
	c-0.9-1.1-1-2.6-0.2-3.8l0.3-0.5c0,0,0,0,0,0c0.8-1.4,0.8-3.2-0.1-4.6c-1.3-2.1-3.4-5.3-4.3-6.8c-0.3-0.5-0.8-0.8-1.3-1
	C37.1,30.1,36.8,30,36.5,30z M36.6,31c0.2,0,0.3,0,0.5,0.1c0.3,0.1,0.6,0.3,0.8,0.6c1,1.5,3,4.6,4.3,6.7c0.7,1.1,0.7,2.4,0.1,3.5
	l-0.3,0.5C41,44,41.1,46,42.2,47.4c1.4,1.7,3.4,4.2,5.3,6.1c2,2,4.5,4.1,6.3,5.6c1.4,1.2,3.4,1.3,4.9,0.3l0.6-0.3
	c1-0.6,2.3-0.6,3.4,0c2.1,1.2,5.2,3.1,6.7,4.1c0.6,0.4,0.8,1.1,0.6,1.7c0,0,0,0,0,0c-0.5,1.3-1.1,2.5-2.1,3.5S65.3,70,62.9,70
	c-2.7,0-6-1.5-9.5-3.8s-7-5.4-10.1-8.5l0,0l0,0c-3.1-3.1-6.2-6.6-8.5-9.9S31,41.1,31,38.3c0-2.6,0.7-4.1,1.6-5.1s2.2-1.6,3.5-2.1
	C36.2,31,36.4,31,36.6,31z M77.5,36.6c-0.3,0-0.5,0.2-0.5,0.5v2c0,0.3,0.2,0.5,0.5,0.5s0.5-0.2,0.5-0.5v-2
	C78,36.8,77.8,36.6,77.5,36.6z M77.5,40.6c-0.3,0-0.5,0.2-0.5,0.5v4c0,0.3,0.2,0.5,0.5,0.5s0.5-0.2,0.5-0.5v-4
	C78,40.8,77.8,40.6,77.5,40.6z"/>
</svg>
